HIERARCHY
ROOT hip
{
	OFFSET 0.000000 0.000000 0.000000 
	CHANNELS 6 Xposition Yposition Zposition Xrotation Zrotation Yrotation
	JOINT abdomen
	{
		OFFSET 0.000000 3.402643 0.000000 
		CHANNELS 3 Xrotation Zrotation Yrotation
		JOINT chest
		{
			OFFSET 0.000000 8.438565 -0.680529 
			CHANNELS 3 Xrotation Zrotation Yrotation
			JOINT neck
			{
				OFFSET 0.000000 10.207942 -0.272212 
				CHANNELS 3 Xrotation Zrotation Yrotation
				JOINT head
				{
					OFFSET 0.000000 3.130431 0.000000 
					CHANNELS 3 Xrotation Zrotation Yrotation
					End Site
					{
						OFFSET 0.000000 3.130435 0.000000 
					}
				}
			}
			JOINT lCollar
			{
				OFFSET 3.470700 6.669187 -0.816635 
				CHANNELS 3 Yrotation Zrotation Xrotation
				JOINT lShldr
				{
					OFFSET 3.198488 0.000000 0.000000 
					CHANNELS 3 Zrotation Yrotation Xrotation
					JOINT lForeArm
					{
						OFFSET 10.139888 0.000000 0.000000 
						CHANNELS 3 Yrotation Zrotation Xrotation
						JOINT lHand
						{
							OFFSET 8.370511 0.000000 0.000000 
							CHANNELS 3 Zrotation Yrotation Xrotation
							End Site
							{
								OFFSET 4.083176 0.000000 0.000000 
							}
						}
					}
				}
			}
			JOINT rCollar
			{
				OFFSET -3.470700 6.669187 -0.816635 
				CHANNELS 3 Yrotation Zrotation Xrotation
				JOINT rShldr
				{
					OFFSET -3.198488 0.000000 0.000000 
					CHANNELS 3 Zrotation Yrotation Xrotation
					JOINT rForeArm
					{
						OFFSET -10.139888 0.000000 0.000000 
						CHANNELS 3 Yrotation Zrotation Xrotation
						JOINT rHand
						{
							OFFSET -8.370511 0.000000 0.000000 
							CHANNELS 3 Zrotation Yrotation Xrotation
							End Site
							{
								OFFSET -4.083176 0.000000 0.000000 
							}
						}
					}
				}
			}
		}
	}
	JOINT lThigh
	{
		OFFSET 5.308129 -1.633274 1.361059 
		CHANNELS 3 Xrotation Zrotation Yrotation
		JOINT lShin
		{
			OFFSET -2.041588 -20.007561 0.000000 
			CHANNELS 3 Xrotation Zrotation Yrotation
			JOINT lFoot
			{
				OFFSET 0.000000 -19.190928 -1.224953 
				CHANNELS 3 Xrotation Yrotation Zrotation
				End Site
				{
					OFFSET 0.000000 -2.449906 4.627600 
				}
			}
		}
	}
	JOINT rThigh
	{
		OFFSET -5.308129 -1.633274 1.361059 
		CHANNELS 3 Xrotation Zrotation Yrotation
		JOINT rShin
		{
			OFFSET 2.041588 -20.007561 0.000000 
			CHANNELS 3 Xrotation Zrotation Yrotation
			JOINT rFoot
			{
				OFFSET 0.000000 -19.190928 -1.224953 
				CHANNELS 3 Xrotation Yrotation Zrotation
				End Site
				{
					OFFSET 0.000000 -2.449906 4.627600 
				}
			}
		}
	}
}
MOTION
Frames: 13
Frame Time: 0.011111
7.198709 52.857231 76.959831 177.456635 173.579361 -5.777761 6.470143 5.295820 10.697978 -3.587224 2.365230 3.183737 -12.491542 -8.344575 -3.709611 24.978142 14.363149 -6.384717 12.413046 -14.960623 4.251975 -62.943951 -17.530985 0.682034 -49.360928 7.843898 6.944263 6.992188 16.005859 -61.423084 -6.427974 8.898234 2.089853 63.032879 68.511650 26.122421 69.810394 -10.123050 15.830635 -7.001954 -15.996095 73.007820 -47.876274 11.229572 -3.333496 29.864838 -5.258962 -2.198359 -25.643379 -2.234987 -0.498080 17.163334 8.776453 -4.064078 3.525097 5.055029 -0.033534 -6.855982 11.430352 2.480515 
7.199335 52.887257 76.602020 177.554199 173.632446 -5.637100 6.622792 5.126879 10.848481 -3.578158 2.081108 3.220339 -12.616155 -8.079372 -3.853479 25.281897 14.453614 -6.640304 12.413046 -14.960623 4.251975 -62.322773 -17.412943 0.638217 -49.236961 7.817653 6.895161 6.992188 16.005859 -61.501217 -6.427974 8.898234 2.089853 62.938164 68.776306 26.023064 70.504829 -10.077576 16.155596 -7.001954 -15.996095 73.105469 -48.294888 11.043811 -3.450178 29.727394 -5.249070 -2.190280 -24.843784 -2.596843 -0.755676 17.632929 8.718446 -4.158187 3.524183 5.055507 -0.043244 -6.956676 11.426584 2.489320 
7.181819 52.906017 76.235451 177.622040 173.656708 -5.432761 6.797253 5.083070 10.777218 -3.851528 2.008709 3.180607 -12.572201 -8.221517 -3.840500 25.447695 14.787601 -6.562160 12.413046 -14.960623 4.251975 -62.106800 -17.051430 0.017036 -49.132500 7.788137 6.859944 6.992188 16.005859 -61.872307 -6.427974 8.898234 2.089853 62.517990 68.764885 26.048422 71.346573 -10.007731 16.545849 -7.001954 -15.996095 73.115234 -48.545940 10.808930 -3.292497 29.705694 -5.259926 -2.181757 -24.489710 -2.969058 -0.937110 18.054762 8.709818 -4.327196 3.525150 5.054992 -0.033538 -6.877891 11.361353 2.459467 
7.143350 52.914463 75.858879 177.574661 173.835007 -5.616563 6.726528 4.843254 11.050662 -3.793213 1.917015 3.269989 -12.383456 -8.338681 -3.923108 25.263214 15.239697 -6.630805 12.413046 -14.960623 4.251975 -61.807816 -16.911030 -0.526588 -48.893436 7.726539 6.766260 6.992188 16.005859 -62.301994 -6.427974 8.898234 2.089853 62.331676 69.443039 25.892368 71.496025 -9.994755 16.621185 -7.001954 -15.996095 73.496094 -48.906113 10.576147 -3.172317 29.736254 -5.255172 -2.181684 -24.715147 -2.708371 -0.797120 18.288971 8.358226 -4.179075 3.524191 5.055500 -0.043245 -6.729934 11.278065 2.424237 
7.113325 52.875683 75.483543 177.554153 173.344070 -5.981644 6.854773 5.445459 11.471395 -3.735649 1.492976 3.376258 -12.360657 -8.173984 -4.004124 25.164886 15.410756 -6.731883 12.413046 -14.960623 4.251975 -61.388531 -16.720291 -0.706409 -48.737385 7.684422 6.701779 6.992188 16.005859 -62.243397 -6.427974 8.898234 2.089853 62.706928 70.054512 25.998306 71.698990 -9.976821 16.719103 -7.001954 -15.996095 73.818359 -49.422256 10.966525 -3.919704 29.795177 -5.258718 -2.176075 -24.681690 -2.440827 -0.678479 18.862553 8.630285 -3.594040 3.525015 5.055086 -0.033529 -6.477693 11.255574 2.363555 
7.099248 52.837528 75.121986 177.327011 172.708878 -6.350908 6.892500 6.194072 11.647635 -3.726293 1.316333 3.414242 -12.706505 -8.336914 -3.847537 25.403521 15.624475 -6.443573 12.413046 -14.960623 4.251975 -61.467434 -16.588987 -1.443944 -48.623302 7.655411 6.656095 6.992188 16.005859 -62.497311 -6.427974 8.898234 2.089853 62.954468 70.535744 26.479687 71.986298 -9.948133 16.857796 -7.001954 -15.996095 73.779297 -50.112083 11.571385 -4.644541 29.746277 -5.255191 -2.192711 -24.669172 -2.357586 -0.650032 19.298763 9.087508 -2.966563 3.523934 5.055680 -0.043228 -6.210245 11.195131 2.314662 
7.083923 52.834396 74.749786 177.093826 172.850494 -6.541015 6.726879 6.018576 11.532017 -3.481663 1.673078 3.404680 -13.058438 -8.836443 -3.682219 25.606768 15.845764 -6.171500 12.413046 -14.960623 4.251975 -61.938866 -16.612923 -2.377898 -48.528744 7.623277 6.611840 6.992188 16.005859 -62.907463 -6.427974 8.898234 2.089853 62.808685 71.302826 26.936001 72.155563 -9.928706 16.933996 -7.001954 -15.996095 73.710938 -50.465191 11.591162 -4.106447 29.665987 -5.259796 -2.180155 -24.505667 -2.634699 -0.780047 19.423323 8.876680 -2.788336 3.523914 5.055693 -0.043227 -6.093146 11.134001 2.294050 
7.052021 52.837528 74.364769 176.940262 173.076797 -6.803649 6.504908 5.750321 11.669870 -3.276835 1.689435 3.459919 -12.940253 -8.812885 -3.722597 25.280533 15.801584 -6.273086 12.413046 -14.960623 4.251975 -61.796848 -16.496981 -2.652293 -48.487812 7.616128 6.601928 6.992188 16.005859 -62.829338 -6.427974 8.898234 2.089853 62.817612 71.940796 27.164532 72.293488 -9.913328 16.997295 -7.001954 -15.996095 73.857422 -50.563660 11.552207 -3.366641 29.506178 -5.264058 -2.155518 -23.936396 -2.800850 -0.885618 19.601715 8.531322 -2.597902 3.524822 5.055221 -0.033516 -6.036957 11.073611 2.249489 
7.022933 52.827827 73.981621 176.716217 172.924576 -7.124509 6.265229 5.914491 11.974084 -3.218921 1.469808 3.536228 -12.649045 -8.700278 -3.759511 24.959333 16.054504 -6.250865 12.413046 -14.960623 4.251975 -61.397778 -16.303089 -2.768402 -48.415695 7.600319 6.582139 6.992188 16.005859 -62.790272 -6.427974 8.898234 2.089853 62.796890 72.151863 27.312157 72.580681 -9.881787 17.136076 -7.001954 -15.996095 74.355469 -50.824093 11.746896 -3.507833 29.298311 -5.258742 -2.136189 -23.668407 -2.429429 -0.756184 19.821211 8.582506 -2.198926 3.524744 5.055274 -0.033511 -6.011568 10.902336 2.217708 
7.013863 52.806252 73.611931 176.590988 172.916885 -7.405640 6.332560 5.833004 12.079973 -3.569886 1.520460 3.556743 -12.678170 -8.809055 -3.649246 25.284533 16.201550 -5.991337 12.413046 -14.960623 4.251975 -61.402344 -15.975727 -3.462106 -48.311443 7.569245 6.538139 6.992188 16.005859 -63.102772 -6.427974 8.898234 2.089853 62.733158 72.146057 27.605015 72.834496 -9.850053 17.261011 -7.001954 -15.996095 74.521484 -50.964104 11.776843 -3.820085 29.167477 -5.269390 -2.142735 -23.788464 -2.072192 -0.590623 20.021311 8.502080 -1.892177 3.523759 5.055802 -0.043217 -5.936186 10.801820 2.204221 
7.003541 52.810310 73.241295 176.635849 173.120880 -7.964572 6.769072 5.389316 12.599575 -4.672366 1.169871 3.657516 -12.597930 -8.361399 -3.643876 25.914984 16.064066 -5.907571 12.413046 -14.960623 4.251975 -60.770664 -15.185051 -3.789090 -48.290985 7.565605 6.527053 6.992188 16.005859 -63.190662 -6.427974 8.898234 2.089853 62.848682 71.509628 27.523869 73.097862 -9.814150 17.387289 -7.001954 -15.996095 74.404297 -50.760269 11.845431 -3.829544 29.217047 -5.269534 -2.134992 -23.827457 -1.815562 -0.471652 20.360279 8.056183 -1.408517 3.523676 5.055859 -0.043211 -5.743456 10.779504 2.163905 
6.954436 52.783413 72.818123 176.331741 172.981934 -7.924160 6.229751 5.653355 12.604093 -3.853576 1.117322 3.693414 -12.810705 -8.159649 -3.716361 25.526651 15.745242 -6.125725 12.413046 -14.960623 4.251975 -60.875584 -15.623686 -3.960580 -48.280270 7.560533 6.518542 6.992188 16.005859 -63.151600 -6.427974 8.898234 2.089853 62.731674 72.246040 27.640024 73.184738 -9.807014 17.425440 -7.001954 -15.996095 74.580078 -51.049362 11.825183 -4.048502 29.247553 -5.264747 -2.125192 -23.298719 -2.053432 -0.613099 20.495871 8.114295 -1.356799 3.523656 5.055873 -0.043210 -5.627807 10.823534 2.150891 
6.915967 52.710224 72.394318 -3.929252 7.177854 171.619247 5.880893 5.905601 12.692776 -3.453518 1.296087 3.742723 -12.785655 -8.308230 -3.677538 25.352001 15.590995 -6.089025 12.413046 -14.960623 4.251975 -61.253963 -15.464819 -4.097520 -48.445908 7.602478 6.583490 6.992188 16.005859 -62.682854 -6.427974 8.898234 2.089853 63.147770 73.038658 28.236855 72.865356 -9.844492 17.274073 -7.001954 -15.996095 74.394531 -51.215340 12.030314 -4.858628 29.098639 -5.264399 -2.128974 -23.185102 -1.422513 -0.361004 20.696548 8.151518 -0.834010 3.524492 5.055449 -0.033495 -5.694115 10.842222 2.167175 
